<?xml version="1.0" standalone="no"?><svg xmlns="http://www.w3.org/2000/svg" viewBox="0 0 1440 320"><path fill="#273036" fill-opacity="0.15" d="M0,64L17.1,85.3C34.3,107,69,149,103,154.7C137.1,160,171,128,206,138.7C240,149,274,203,309,218.7C342.9,235,377,213,411,213.3C445.7,213,480,235,514,208C548.6,181,583,107,617,85.3C651.4,64,686,96,720,128C754.3,160,789,192,823,197.3C857.1,203,891,181,926,165.3C960,149,994,139,1029,112C1062.9,85,1097,43,1131,69.3C1165.7,96,1200,192,1234,197.3C1268.6,203,1303,117,1337,80C1371.4,43,1406,53,1423,58.7L1440,64L1440,320L1422.9,320C1405.7,320,1371,320,1337,320C1302.9,320,1269,320,1234,320C1200,320,1166,320,1131,320C1097.1,320,1063,320,1029,320C994.3,320,960,320,926,320C891.4,320,857,320,823,320C788.6,320,754,320,720,320C685.7,320,651,320,617,320C582.9,320,549,320,514,320C480,320,446,320,411,320C377.1,320,343,320,309,320C274.3,320,240,320,206,320C171.4,320,137,320,103,320C68.6,320,34,320,17,320L0,320Z"></path></svg>